<svg xmlns="http://www.w3.org/2000/svg" viewBox="0 0 1024 1024" version="1.1" width="128" height="128">
  <path d="M880.94 960H143.06C99.46 960 64 924.54 64 880.94V143.06C64 99.46 99.46 64 143.06 64h737.88c43.6 0 79.06 35.46 79.06 79.06v737.88c0 43.6-35.46 79.06-79.06 79.06zM143.06 116.71c-14.53 0-26.35 11.82-26.35 26.35v737.88c0 14.53 11.82 26.35 26.35 26.35h737.88c14.53 0 26.35-11.82 26.35-26.35V143.06c0-14.53-11.82-26.35-26.35-26.35H143.06z"></path>
  <path d="M933.65 301.18H90.35c-14.55 0-26.35-11.8-26.35-26.35V143.06C64 99.46 99.46 64 143.06 64h737.88c43.6 0 79.06 35.46 79.06 79.06v131.76c0 14.56-11.8 26.36-26.35 26.36z m-816.94-52.71H907.3V143.06c0-14.53-11.82-26.35-26.35-26.35H143.06c-14.53 0-26.35 11.82-26.35 26.35v105.41z"></path>
  <path d="M195.77 182.59m-26.35 0a26.35 26.35 0 1 0 52.7 0 26.35 26.35 0 1 0-52.7 0Z"></path>
  <path d="M274.82 182.59m-26.35 0a26.35 26.35 0 1 0 52.7 0 26.35 26.35 0 1 0-52.7 0Z"></path>
  <path d="M353.88 182.59m-26.35 0a26.35 26.35 0 1 0 52.7 0 26.35 26.35 0 1 0-52.7 0Z"></path>
  <path d="M248.47 520.79c-14.55 0-26.35-11.8-26.35-26.35s11.8-26.35 26.35-26.35v-0.01h368.94c14.55 0 26.35 11.8 26.35 26.35v0.01c0 14.52-11.75 26.3-26.27 26.35-0.03-0.01-0.05-0.02-0.08 0H248.47zM775.53 740.39H248.47c-14.55 0-26.35-11.8-26.35-26.35s11.8-26.35 26.35-26.35h527.06c14.55 0 26.35 11.8 26.35 26.35s-11.8 26.35-26.35 26.35z"></path>
</svg>
