<svg xmlns="http://www.w3.org/2000/svg" viewBox="0 0 1024 1024" width="128" height="128">
  <path
    d="M513.28 957.27c-246.25 0-445.64-199.4-445.64-444.49 0-245.11 199.4-444.51 444.51-444.51s444.51 199.4 444.51 444.51c0 15.22-12.35 27.56-27.56 27.56-15.22 0-27.56-12.35-27.56-27.56 0-214.71-174.68-389.39-389.39-389.39S122.76 298.07 122.76 512.78s174.68 389.39 389.39 389.39l338.54-14.59c15.52-0.84 28.06 11.14 28.73 26.36 0.65 15.22-11.16 28.06-26.36 28.73l-339.72 14.61c-0.02-0.01-0.04-0.01-0.06-0.01z">
  </path>
  <path
    d="M852.13 942.68c-7.05 0-14.1-2.69-19.49-8.07L716.4 818.37c-10.77-10.77-10.77-28.21 0-38.97 10.77-10.77 28.21-10.77 38.97 0l116.24 116.24c10.77 10.77 10.77 28.21 0 38.97a27.463 27.463 0 0 1-19.48 8.07zM629.47 616.01H396.2c-15.22 0-27.56-12.35-27.56-27.56 0-15.22 12.35-27.56 27.56-27.56h233.26c15.22 0 27.56 12.35 27.56 27.56 0.01 15.21-12.34 27.56-27.55 27.56zM629.47 507.47H396.2c-15.22 0-27.56-12.35-27.56-27.56s12.35-27.56 27.56-27.56h233.26c15.22 0 27.56 12.35 27.56 27.56s-12.34 27.56-27.55 27.56z">
  </path>
  <path
    d="M510.97 483.21c-7.05 0-14.1-2.69-19.49-8.07-10.77-10.77-10.77-28.21 0-38.97L621.84 305.8c10.77-10.77 28.21-10.77 38.97 0 10.77 10.77 10.77 28.21 0 38.97L530.46 475.13a27.471 27.471 0 0 1-19.49 8.08z">
  </path>
  <path
    d="M514.7 483.21c-7.05 0-14.1-2.69-19.49-8.07L364.86 344.77c-10.77-10.77-10.77-28.21 0-38.97s28.21-10.77 38.97 0l130.36 130.36c10.77 10.77 10.77 28.21 0 38.97-5.38 5.39-12.44 8.08-19.49 8.08z">
  </path>
  <path
    d="M512.84 720.9c-15.22 0-27.56-12.35-27.56-27.56V480.26c0-15.22 12.35-27.56 27.56-27.56 15.22 0 27.56 12.35 27.56 27.56v213.08c0 15.22-12.35 27.56-27.56 27.56z">
  </path>
</svg>
