<svg xmlns="http://www.w3.org/2000/svg" viewBox="0 0 1032 1024" width="516" height="512">
  <path d="M1016.428071 475.634296c0.003054-0.182214 0.026467-0.35832 0.026467-0.541552 0-0.228022-0.028503-0.446882-0.033592-0.673886-0.011197-0.335925-0.027485-0.668796-0.050898-1.003703-0.519157-8.742189-5.026657-16.394149-11.749225-21.167335L530.825339 26.34809c-0.132334-0.151675-0.242273-0.314548-0.376643-0.463169-5.300486-5.895989-12.537121-8.997695-19.882677-9.24913-0.379697-0.018323-0.76143-0.004072-1.142144-0.007126-0.380715 0.002036-0.762448-0.011197-1.143162 0.007126-7.344538 0.251435-14.581173 3.35314-19.882677 9.24913-0.13437 0.148621-0.244309 0.311494-0.374607 0.463169L11.674914 454.541272c-0.180178 0.162873-0.334907 0.342033-0.508977 0.506941-0.35323 0.333889-0.696281 0.674903-1.031187 1.026098-0.320656 0.335925-0.631131 0.675921-0.932446 1.02508-0.285027 0.329817-0.559875 0.66676-0.829632 1.010828-0.304368 0.388858-0.601611 0.780771-0.883584 1.182863-0.235147 0.334907-0.460115 0.677957-0.681011 1.023044-0.26874 0.421433-0.530354 0.843884-0.775681 1.276514-0.206645 0.364428-0.39802 0.735981-0.588377 1.110588-0.216824 0.426523-0.427541 0.854063-0.62197 1.289748-0.182214 0.4082-0.347122 0.824543-0.509995 1.241904-0.161855 0.419397-0.320656 0.838794-0.463169 1.264299-0.148621 0.443828-0.279937 0.893764-0.406164 1.346753-0.117065 0.424487-0.230058 0.847956-0.327781 1.274478-0.103831 0.454007-0.191375 0.911069-0.272812 1.372202-0.080418 0.455025-0.150657 0.911069-0.208681 1.369148-0.05497 0.434666-0.098742 0.869333-0.133352 1.310107-0.040718 0.506941-0.064131 1.011846-0.077365 1.520823-0.00509 0.230058-0.033592 0.45299-0.033592 0.684065 0 0.186286 0.023413 0.365445 0.028503 0.551731 0.009162 0.519157 0.0397 1.037295 0.078382 1.556452 0.030539 0.416343 0.063113 0.831668 0.111975 1.242922 0.058023 0.485564 0.137424 0.968074 0.221914 1.450584 0.074311 0.43263 0.147603 0.863225 0.241255 1.287712 0.101795 0.455025 0.224968 0.904961 0.349158 1.355915 0.119101 0.43263 0.235147 0.865261 0.375625 1.289748 0.142514 0.436702 0.309458 0.867297 0.474367 1.297891 0.161855 0.420415 0.320656 0.84083 0.501851 1.252083 0.18425 0.419397 0.391912 0.828615 0.597539 1.239868 0.204609 0.4082 0.407182 0.815381 0.631131 1.211365 0.21886 0.38784 0.458079 0.766519 0.697298 1.146216 0.254488 0.405146 0.511013 0.80622 0.784843 1.198132 0.245327 0.34814 0.505923 0.687119 0.768555 1.027116 0.310476 0.402092 0.62706 0.798076 0.958913 1.180827 0.123172 0.144549 0.22904 0.298261 0.356284 0.440774 0.159819 0.177124 0.335925 0.328799 0.497779 0.500833 0.339997 0.359338 0.686101 0.709514 1.044421 1.050529 0.330835 0.314548 0.664724 0.618916 1.006756 0.914123 0.336943 0.290117 0.679993 0.571072 1.031187 0.84592 0.381733 0.300296 0.767537 0.591431 1.162503 0.869333 0.34305 0.241255 0.693227 0.469277 1.046457 0.696281 0.413289 0.26365 0.828615 0.520174 1.253101 0.76143 0.371553 0.211734 0.752268 0.407182 1.135019 0.601611 0.418379 0.211734 0.836758 0.419397 1.263281 0.608736 0.416343 0.187304 0.842866 0.356284 1.270407 0.52221 0.409218 0.158801 0.819453 0.31353 1.234778 0.451972 0.454007 0.151675 0.914123 0.286045 1.377292 0.414307 0.413289 0.115029 0.825561 0.224968 1.241904 0.31862 0.464187 0.106885 0.933464 0.197483 1.405794 0.279937 0.44281 0.078382 0.886638 0.147603 1.332502 0.204609 0.445864 0.055987 0.893764 0.100777 1.344717 0.135388 0.494726 0.0397 0.987415 0.063113 1.483159 0.075329 0.236165 0.006108 0.466223 0.035628 0.704424 0.035628l100.987143 0c-0.117065 1.481123-0.194429 2.973444-0.194429 4.485105l0 448.245858 0 0.001018c0 30.945801 25.086458 56.031241 56.031241 56.031241l196.124104 0c0.018323 0 0.036646-0.001018 0.053952-0.001018 30.920352-0.029521 55.97729-25.101727 55.97729-56.030223l0-232.846794 0-23.870003c0-15.472901 12.542211-28.015112 28.015112-28.015112l84.046353 0c15.471883 0 28.015112 12.542211 28.015112 28.015112l0 23.870003 0 232.846794c0 30.928496 25.056937 56.000703 55.975254 56.030223 0.020359 0 0.037664 0.001018 0.055987 0.001018l196.125122 0c30.943765 0 56.030223-25.08544 56.030223-56.031241l0-0.001018 0-448.245858c0-1.608367-0.083472-3.195358-0.215806-4.769114l97.039517 0c8.9356 1.270407 18.321136-1.785491 24.806521-9.002785 4.182773-4.653068 6.488439-10.324089 7.025918-16.11014 0.003054-0.033592 0.006108-0.067185 0.009162-0.100777C1016.382264 477.141886 1016.421964 476.3886 1016.428071 475.634296zM859.581722 447.076615c-6.432451 0-12.340656 2.191655-17.07007 5.836948-6.564785 5.060249-10.826959 12.947357-10.928754 21.853436-0.002036 0.108921-0.016287 0.214788-0.016287 0.324727s0.014251 0.215806 0.016287 0.324727l0 451.256965c0 15.472901-12.542211 28.015112-28.015112 28.015112L663.474922 954.688531c-15.25404 0-27.633379-12.196107-27.982537-27.366675L635.492385 671.326788c0-0.435684-0.022395-0.865261-0.032575-1.297891-0.692209-30.34419-25.487532-54.73335-55.998667-54.73335L439.384568 615.295547c-30.511135 0-55.306458 24.38916-55.998667 54.73335-0.01018 0.433648-0.032575 0.863225-0.032575 1.297891l0 255.996086c-0.34814 15.16955-12.729515 27.366675-27.982537 27.366675L215.276909 954.689549c-15.472901 0-28.015112-12.542211-28.015112-28.015112L187.261797 475.660763c0.001018-0.095688 0.014251-0.189339 0.014251-0.285027 0-0.095688-0.013233-0.189339-0.014251-0.284009-0.090598-9.058773-4.489177-17.068034-11.236176-22.123194-4.677499-3.505834-10.468639-5.607909-16.764684-5.607909l-55.781842 0 405.94478-364.905965L915.05207 447.076615 859.581722 447.076615z" p-id="3405" fill="#000000"></path>
</svg>
