<svg xmlns="http://www.w3.org/2000/svg" viewBox="0 0 1024 1024" width="128" height="128">
  <path d="M912 160A48 48 0 0 1 960 208v608a48 48 0 0 1-48 48H529.824l106.432-283.904L505.536 384l63.968-96-85.312-128H912zM401.12 160l84.48 126.72-63.552 111.2 125.952 173.184L438.176 864H112A48 48 0 0 1 64 816v-608A48 48 0 0 1 112 160h289.12zM896 224h-292.192l42.656 64-64 96 125.248 187.904-25.888 69.024 105.568-115.168a16 16 0 0 1 24.288 0.832L896 632V224zM366.848 224H128v390.4l116.256-209.248a16 16 0 0 1 26.592-2.048l183.36 235.744 21.76-57.984-130.016-178.784 64.416-112.8L366.848 224zM736 320a64 64 0 1 1 0 128 64 64 0 0 1 0-128z" fill="#e6e6e6"></path>
</svg>
