<svg xmlns="http://www.w3.org/2000/svg" viewBox="0 0 1024 1024" width="128" height="128">
  <path d="M512 298.667A213.333 213.333 0 01725.333 512 213.333 213.333 0 01512 725.333 213.333 213.333 0 01298.667 512 213.333 213.333 0 01512 298.667M512 384a128 128 0 00-128 128 128 128 0 00128 128 128 128 0 00128-128 128 128 0 00-128-128m0-298.667l101.973 145.92c-31.573-11.52-66.133-17.92-101.973-17.92s-70.4 6.4-101.973 17.92L512 85.333M142.507 298.667L320 283.733a307.2 307.2 0 00-66.56 78.934c-18.773 31.573-29.44 64-35.413 97.706l-75.52-161.706m.853 426.666l75.093-160.853A304.256 304.256 0 00320 741.12l-176.64-15.787m737.707-426.666l-75.52 161.706A299.648 299.648 0 00704 283.307l177.067 15.36m-.427 426.666L704 740.693c25.173-21.76 47.787-48.64 65.707-79.36 17.92-31.146 29.44-64 35.413-97.706l75.52 161.706M512 938.667L409.173 791.893c31.574 11.52 66.134 18.774 102.827 18.774 34.987 0 69.547-7.254 101.12-18.774L512 938.667z" />
</svg>
